# xmcd CD database file
#
# Track frame offsets:
#	150
#	10557
#	20452
#	32747
#	43195
#	60382
#	73702
#	84220
#	96042
#	113120
#	122167
#	136647
#	150182
#	164330
#	175892
#	186722
#	198785
#	212202
#	222052
#	232355
#
# Disc length: 3323 seconds
#
# Revision: 1
# Processed by: cddbd v1.4PL0 Copyright (c) Steve Scherf et al.
# Submitted via: CDex 1.40Release
#
DISCID=0a0cf914
DTITLE=Various Artist - Get Rhythm - A Tribute To The Man In Black
DYEAR=1900
DGENRE=Country
TTITLE0=The DuValls - Get Rhythm
TTITLE1=Cat Scatch Fever - Wreck Of The Old 97
TTITLE2=Legendary Raw Deal - Cocaine Blues
TTITLE3=Those Magnificent Men - Home Of The Blues
TTITLE4=The Slinghots - Ghost Riders In The Sky
TTITLE5=Slim Whitfield - Ring Of Fire
TTITLE6=Union Avenue - Big River
TTITLE7=The Roadkings - Mean Eyed Cat
TTITLE8=Big Red Rocket - One Piece At A Time
TTITLE9=Black Top Rockets - Straight A's In Love
TTITLE10=Union Avenue - Orange Blossom Special
TTITLE11=Boz Boorer - Rock 'n' Roll Ruby
TTITLE12=Al Holden - Folsom Prison Blues
TTITLE13=Hicksville Bombers - I Forgot To Remember To Forget
TTITLE14=The DuValls - There You Go
TTITLE15=Steve Hooker - You're My Baby
TTITLE16=The Hubcaps - Wide Open Road
TTITLE17=The Sabrejets - Home Of The Blues
TTITLE18=Justin Curtis - Ways Of A Woman In Love
TTITLE19=Hank Wangford And The Bhundu Boys - Ring Of Fire
EXTD=(c)Raucous records, England\nUPC 5021449183128 ID3G: 2
EXTT0=
EXTT1=
EXTT2=
EXTT3=
EXTT4=
EXTT5=
EXTT6=
EXTT7=
EXTT8=
EXTT9=
EXTT10=
EXTT11=
EXTT12=
EXTT13=
EXTT14=
EXTT15=
EXTT16=
EXTT17=
EXTT18=
EXTT19=
PLAYORDER=
